<svg width="32" height="32" viewBox="0 0 32 32" fill="none" xmlns="http://www.w3.org/2000/svg">
<path d="M18.2161 15.947C18.2161 17.1486 17.1904 18.28 15.9836 18.28C14.7768 18.28 13.8013 17.1586 13.8013 15.947C13.8013 14.7354 14.7768 13.6841 15.9836 13.6841C17.1904 13.6841 18.2161 14.7455 18.2161 15.947Z" stroke="#B3B3B3" stroke-width="1.5" stroke-miterlimit="10"/>
<path d="M25.9899 15.947C25.9899 16.708 25.8894 17.449 25.7184 18.1599C25.5475 18.8708 25.2458 19.5717 24.9239 20.2326C24.6021 20.8934 24.1798 21.5042 23.7171 22.085C23.2545 22.6657 22.8925 23.3766 22.3092 23.8472C21.7259 24.3178 21.0723 24.7484 20.3985 25.0788C19.7247 25.4092 18.9403 25.4593 18.1961 25.6295C17.4519 25.7997 16.7479 26 15.9735 26C15.1992 26 14.4651 25.8198 13.751 25.6596C13.037 25.4994 12.3331 25.1789 11.6693 24.8585C11.0056 24.5381 10.2513 24.2978 9.66805 23.8272C9.08477 23.3566 8.65233 22.7158 8.18972 22.135C7.72712 21.5543 7.39525 20.9034 7.06338 20.2225C6.73152 19.5417 6.32925 18.9209 6.15829 18.1799C5.98732 17.439 6.00744 16.708 6.00744 15.947C6.00744 15.1861 5.95716 14.4151 6.11806 13.7041C6.27897 12.9932 6.73152 12.3324 7.05333 11.6615C7.37514 10.9906 7.65672 10.2797 8.11933 9.69897C8.58193 9.11822 9.20544 8.68767 9.79878 8.21706C10.3921 7.74646 10.905 7.17572 11.5889 6.85531C12.2727 6.53489 12.9867 6.25453 13.7209 6.08431C14.455 5.91409 15.2092 6.05427 15.9836 6.05427C16.758 6.05427 17.5022 6.00421 18.2262 6.16441C18.9503 6.32462 19.6442 6.66506 20.318 6.98547C20.9918 7.30589 21.5851 7.75647 22.1684 8.21706C22.7517 8.67766 23.4657 9.03812 23.9384 9.61887C24.4111 10.1996 24.763 10.8905 25.0949 11.5614C25.4268 12.2322 25.638 12.9632 25.7989 13.6941C25.9598 14.4251 26 15.156 26 15.927L25.9899 15.947Z" stroke="#B3B3B3" stroke-width="1.5" stroke-miterlimit="10"/>
<path d="M23.2748 15.947C23.2748 16.7381 23.3351 17.5291 23.1038 18.25C22.8725 18.9709 22.5205 19.7319 22.068 20.3527C21.6154 20.9735 20.9919 21.5042 20.3684 21.9648C19.7449 22.4254 18.9806 22.6257 18.2364 22.866C17.4922 23.1063 16.7782 23.3266 15.9837 23.3266C15.1892 23.3266 14.445 23.0963 13.731 22.866C13.017 22.6357 12.1924 22.4655 11.5688 22.0149C10.9453 21.5643 10.4224 20.9435 9.95979 20.3227C9.49718 19.7019 9.22565 18.9709 8.9843 18.23C8.74294 17.489 8.58203 16.7581 8.58203 15.9671C8.58203 15.1761 8.72282 14.4151 8.95413 13.6941C9.18543 12.9732 9.45696 12.1922 9.9095 11.5714C10.3621 10.9506 11.0057 10.46 11.6292 9.99938C12.2527 9.53878 12.9064 9.06818 13.6506 8.82787C14.3948 8.58756 15.1792 8.48743 15.9837 8.48743C16.7882 8.48743 17.5827 8.62761 18.2967 8.86792C19.0107 9.10823 19.6946 9.57883 20.3181 10.0294C20.9416 10.48 21.6054 10.9506 22.0579 11.5714C22.5104 12.1922 22.9127 12.9031 23.1541 13.6441C23.3954 14.385 23.2748 15.166 23.2748 15.9671V15.947Z" stroke="#B3B3B3" stroke-width="1.5" stroke-miterlimit="10"/>
</svg>
