<svg width="32" height="32" viewBox="0 0 32 32" fill="none" xmlns="http://www.w3.org/2000/svg">
<path d="M18.0432 9.20837C16.9411 9.20837 16.9411 9.46819 15.8284 9.46819C14.7157 9.46819 14.7263 9.78214 13.6136 9.78214C12.5009 9.78214 12.5009 9.39241 11.3989 9.42489C10.0742 9.44654 9.85168 9.46819 8.92974 10.5616C8.46347 11.1137 8.16675 12.0447 8.16675 13.2247C8.16675 14.4048 8.94033 14.9569 9.40661 15.5306C10.3391 16.6674 10.0424 17.436 11.3883 17.4901C12.5433 17.5334 12.5645 17.1004 13.7196 17.1004C14.8747 17.1004 14.8747 17.2628 16.0298 17.2628C17.1849 17.2628 17.1849 17.5226 18.3399 17.5226C19.495 17.5226 19.495 16.7973 20.6607 16.7973C21.8264 16.7973 21.8158 17.1437 22.9709 17.187C24.2955 17.2411 24.5922 17.0246 25.5247 18.118C26.0016 18.681 25.8533 19.7094 25.8533 20.8678C25.8533 22.0261 25.9804 23.0113 25.5142 23.5526C24.5922 24.6243 24.3379 24.7867 23.0344 24.83C21.9535 24.8733 21.9429 24.4836 20.8514 24.4836C19.7599 24.4836 19.7599 24.8192 18.679 24.8192C17.5981 24.8192 17.5875 24.6243 16.5066 24.6243" stroke="#C3E71D" stroke-width="1.5" stroke-linecap="round" stroke-linejoin="round"/>
<path d="M22.7562 10.0296C22.3827 9.63401 21.7945 9.22961 21.253 9.04499C21.0289 8.96587 21.0476 8.77246 21.2717 8.70213C21.8132 8.51751 22.4574 8.14827 22.8308 7.75266C23.251 7.401 23.4564 6.72407 23.6524 6.21417C23.7365 6.00318 24.0913 6.06471 24.1659 6.27571C24.362 6.78561 24.8382 7.32188 25.249 7.67354C25.6224 8.06915 26.2106 8.46476 26.7521 8.64938C26.9762 8.7285 26.9669 8.96587 26.7521 9.0362C26.2106 9.22082 25.4544 9.46697 25.0716 9.85379C24.6514 10.2054 24.3807 10.9176 24.1846 11.4274C24.1006 11.6384 23.7645 11.6824 23.6805 11.4714C23.4844 10.9615 23.167 10.3725 22.7562 10.0208V10.0296Z" fill="#C3E71D"/>
<path d="M7.90593 25.2122C7.53774 24.821 6.77374 24.6645 6.24906 24.4819C6.02815 24.4036 6.02815 23.9254 6.24906 23.8472C6.78294 23.6646 7.54694 23.5255 7.91513 23.1342C8.32935 22.7865 8.51345 22.0735 8.70675 21.5779C8.78959 21.3692 9.15779 21.3953 9.24063 21.604C9.43393 22.1083 9.68246 22.7951 10.0967 23.1429C10.4649 23.5342 11.2197 23.7081 11.7535 23.8907C11.9745 23.9689 11.9468 24.2993 11.7259 24.3776C11.1921 24.5601 10.4741 24.821 10.1059 25.2035C9.69167 25.5513 9.50757 26.2643 9.31427 26.7686C9.23143 26.9772 8.82641 26.9598 8.74357 26.7512C8.55027 26.2469 8.32015 25.56 7.91513 25.2035L7.90593 25.2122Z" fill="#C3E71D"/>
</svg>
