<svg width="32" height="32" viewBox="0 0 32 32" fill="none" xmlns="http://www.w3.org/2000/svg">
<path d="M24.8687 16.4429C24.8687 16.5945 25.0606 16.9629 24.9139 17.017C24.1236 17.2554 22.9946 17.4395 21.9446 17.9162C20.9511 18.3604 19.7544 18.642 19.0883 19.2812C18.3996 19.942 18.298 21.1987 17.8125 22.152C17.2932 23.1595 16.5255 24.0479 16.2771 24.8387C16.2319 24.9795 16.1529 24.9254 15.9949 24.9254C15.8368 24.9254 16.0513 24.9037 15.9949 24.7629C15.7352 23.9612 15.1594 22.9212 14.6401 21.892C14.1207 20.8629 13.4885 19.9204 12.766 19.292C12.066 18.6854 11.016 18.3062 10.079 17.8729C9.05158 17.407 7.94517 17.2445 7.17746 17.0062C7.03069 16.9629 6.97424 16.627 6.97424 16.4754C6.97424 16.3237 7.14359 16.3237 7.29036 16.2912C8.06936 16.0637 9.27738 15.9879 10.316 15.522C11.2757 15.0887 12.066 14.2112 12.7434 13.5829C13.4321 12.9329 13.9062 11.882 14.3917 10.8854C14.8997 9.83455 15.6562 8.87038 15.9158 8.07955C15.961 7.93872 15.8255 7.80872 15.9836 7.80872C16.1416 7.80872 16.4352 7.81955 16.4803 7.96038C16.6948 8.69705 16.6723 9.80205 17.1238 10.7554C17.5416 11.6545 18.3319 12.3587 18.9641 12.9762C19.5512 13.5504 19.9576 14.1895 20.556 14.5579C21.1769 14.9479 21.8543 15.2945 22.5994 15.5762C23.243 15.8145 23.9994 15.9012 24.8123 16.1395C24.959 16.1829 25.0042 16.1937 25.0042 16.3454C24.9139 16.4104 24.8574 16.432 24.8574 16.4429H24.8687Z" stroke="#B3B3B3" stroke-width="1.5" stroke-miterlimit="10"/>
<path d="M24.0386 26.2316C23.6817 25.8451 22.941 25.6904 22.4324 25.5101C22.2182 25.4328 22.2182 24.9603 22.4324 24.883C22.9499 24.7026 23.6906 24.5652 24.0476 24.1787C24.4491 23.8351 24.6276 23.1307 24.815 22.6411C24.8953 22.435 25.2523 22.4607 25.3326 22.6669C25.52 23.1651 25.7609 23.8437 26.1625 24.1873C26.5195 24.5738 27.2512 24.7456 27.7688 24.926C27.983 25.0033 27.9562 25.3297 27.742 25.407C27.2244 25.5874 26.5284 25.8451 26.1714 26.223C25.7699 26.5666 25.5914 27.271 25.404 27.7692C25.3237 27.9753 24.931 27.9581 24.8507 27.752C24.6633 27.2538 24.4402 26.5752 24.0476 26.223L24.0386 26.2316Z" fill="#B3B3B3"/>
<path d="M5.69479 7.98202C5.33274 7.59118 4.76251 7.19165 4.23753 7.00926C4.0203 6.93109 4.0384 6.74002 4.25563 6.67053C4.78061 6.48814 5.40515 6.12336 5.7672 5.73252C6.17451 5.38511 6.37364 4.71634 6.56372 4.21259C6.64518 4.00414 6.98914 4.06494 7.06155 4.27339C7.25162 4.77714 7.71324 5.30694 8.1115 5.65435C8.47355 6.04519 9.04379 6.43603 9.56877 6.61842C9.786 6.69659 9.77695 6.93109 9.56877 7.00058C9.04379 7.18297 8.31063 7.42616 7.93952 7.80831C7.53221 8.15572 7.26973 8.85923 7.07965 9.36298C6.99819 9.57143 6.67234 9.61485 6.59088 9.40641C6.4008 8.90266 6.09305 8.32074 5.69479 7.97333V7.98202Z" fill="#B3B3B3"/>
</svg>
